<svg aria-hidden="true" style="width:0;height:0;position:absolute;overflow:hidden" xmlns="http://www.w3.org/2000/svg"><defs><symbol id="icon-All-Rights-Reserved" viewBox="0 0 650 32"><path fill="#545454" style="fill:var(--color1,#545454)" d="M17.906 14.672c0 1.594-.453 2.812-1.359 3.656-.896.833-2.167 1.25-3.812 1.25-1.635 0-2.948-.547-3.938-1.64-.979-1.104-1.469-2.604-1.469-4.5v-1.719c0-1.833.495-3.297 1.484-4.391 1-1.104 2.307-1.656 3.922-1.656 1.667 0 2.948.427 3.844 1.281s1.344 2.057 1.344 3.609h-2.281c0-1.031-.25-1.766-.75-2.203-.49-.448-1.208-.672-2.156-.672-.979 0-1.75.359-2.313 1.078s-.844 1.719-.844 3v1.766c0 1.25.281 2.234.844 2.953s1.333 1.078 2.313 1.078c.958 0 1.677-.219 2.156-.656.49-.438.734-1.182.734-2.235h2.281zM3.641 12.609c0 1.792.417 3.453 1.25 4.984.833 1.521 1.964 2.713 3.391 3.578 1.438.865 2.99 1.297 4.656 1.297s3.214-.432 4.641-1.297 2.557-2.057 3.391-3.578c.833-1.531 1.25-3.193 1.25-4.984 0-1.771-.412-3.411-1.234-4.922s-1.953-2.698-3.391-3.562a8.743 8.743 0 0 0-4.656-1.313 8.868 8.868 0 0 0-4.656 1.297c-1.438.854-2.573 2.042-3.406 3.562-.823 1.521-1.234 3.167-1.234 4.938zm-1.797 0c0-2.104.484-4.057 1.453-5.859.979-1.802 2.328-3.219 4.047-4.25C9.073 1.459 10.938.938 12.938.938s3.859.521 5.578 1.563c1.719 1.031 3.063 2.448 4.031 4.25.979 1.802 1.469 3.755 1.469 5.859 0 2.052-.469 3.974-1.406 5.766s-2.271 3.234-4 4.328c-1.719 1.083-3.609 1.625-5.672 1.625a10.56 10.56 0 0 1-5.672-1.609c-1.719-1.083-3.052-2.521-4-4.313s-1.422-3.724-1.422-5.797zM58.25 24H43.344v-2.078l7.875-8.75c1.167-1.323 1.969-2.396 2.406-3.219.448-.833.672-1.693.672-2.578 0-1.188-.359-2.161-1.078-2.922s-1.677-1.141-2.875-1.141c-1.438 0-2.557.412-3.359 1.234-.792.813-1.188 1.948-1.188 3.406h-2.891c0-2.094.672-3.787 2.016-5.078C46.276 1.582 48.084.936 50.344.936c2.115 0 3.786.557 5.016 1.672 1.229 1.104 1.844 2.578 1.844 4.422 0 2.239-1.427 4.906-4.281 8l-6.094 6.609h11.422v2.359zm17.328-9.703c0 3.386-.578 5.901-1.734 7.547s-2.964 2.469-5.422 2.469c-2.427 0-4.224-.802-5.391-2.406-1.167-1.615-1.771-4.021-1.812-7.219v-3.86c0-3.344.578-5.828 1.734-7.453S65.922.938 68.39.938c2.448 0 4.25.787 5.406 2.359 1.156 1.563 1.75 3.979 1.781 7.25v3.75zm-2.89-3.953c0-2.448-.344-4.229-1.031-5.344-.687-1.125-1.776-1.688-3.266-1.688-1.479 0-2.557.557-3.234 1.672s-1.026 2.828-1.047 5.141v4.625c0 2.458.354 4.276 1.062 5.453.719 1.167 1.802 1.75 3.25 1.75 1.427 0 2.484-.552 3.172-1.656.698-1.104 1.062-2.844 1.094-5.219v-4.734zM94.188 24H79.282v-2.078l7.875-8.75c1.167-1.323 1.969-2.396 2.406-3.219.448-.833.672-1.693.672-2.578 0-1.188-.359-2.161-1.078-2.922s-1.677-1.141-2.875-1.141c-1.437 0-2.557.412-3.359 1.234-.792.813-1.187 1.948-1.187 3.406h-2.891c0-2.094.672-3.787 2.016-5.078C82.215 1.582 84.022.936 86.283.936c2.115 0 3.787.557 5.016 1.672 1.229 1.104 1.844 2.578 1.844 4.422 0 2.239-1.427 4.906-4.281 8l-6.094 6.609H94.19v2.359zm17.328-9.703c0 3.386-.578 5.901-1.734 7.547s-2.963 2.469-5.422 2.469c-2.427 0-4.224-.802-5.391-2.406-1.167-1.615-1.771-4.021-1.813-7.219v-3.86c0-3.344.578-5.828 1.734-7.453s2.969-2.437 5.438-2.437c2.448 0 4.25.787 5.406 2.359 1.156 1.563 1.75 3.979 1.781 7.25v3.75zm-2.891-3.953c0-2.448-.344-4.229-1.031-5.344-.688-1.125-1.776-1.688-3.266-1.688-1.479 0-2.557.557-3.234 1.672s-1.026 2.828-1.047 5.141v4.625c0 2.458.354 4.276 1.063 5.453.719 1.167 1.802 1.75 3.25 1.75 1.427 0 2.484-.552 3.172-1.656.698-1.104 1.063-2.844 1.094-5.219v-4.734zm17.703 17.875H124V1.25h2.328v26.969zm25.891-10.156h-9.531L140.547 24h-3.094l8.687-22.75h2.625L157.468 24h-3.078l-2.172-5.938zm-8.625-2.469h7.734l-3.875-10.641-3.859 10.641zM163.219 24h-2.891V0h2.891v24zM171 24h-2.891V0H171v24zm21.375-9.203h-5.344V24h-3.016V1.25h7.531c2.563 0 4.531.583 5.906 1.75 1.385 1.167 2.078 2.865 2.078 5.094 0 1.417-.385 2.651-1.156 3.703-.76 1.052-1.823 1.839-3.187 2.359l5.344 9.656V24h-3.22l-4.937-9.203zm-5.344-2.453h4.609c1.49 0 2.672-.385 3.547-1.156.885-.771 1.328-1.802 1.328-3.094 0-1.406-.422-2.484-1.266-3.234-.833-.75-2.042-1.13-3.625-1.141h-4.594v8.625zM206.438 24h-2.892V7.094h2.892V24zm-3.126-21.391c0-.469.142-.865.422-1.188.292-.323.72-.484 1.282-.484s.99.161 1.28.484c.292.323.438.719.438 1.188s-.146.859-.438 1.172c-.29.312-.718.469-1.28.469s-.99-.156-1.282-.469c-.28-.312-.422-.703-.422-1.172zm7.078 12.797c0-2.635.61-4.729 1.828-6.281 1.22-1.563 2.834-2.344 4.844-2.344 2.062 0 3.672.729 4.828 2.188l.142-1.875h2.64v16.5c0 2.187-.652 3.911-1.954 5.172-1.29 1.26-3.03 1.891-5.218 1.891-1.218 0-2.412-.26-3.578-.781s-2.058-1.234-2.672-2.141l1.5-1.734c1.24 1.531 2.756 2.297 4.546 2.297 1.408 0 2.5-.396 3.282-1.187.792-.792 1.188-1.906 1.188-3.344v-1.453c-1.156 1.333-2.734 2-4.734 2-1.98 0-3.584-.797-4.814-2.391-1.218-1.594-1.828-3.766-1.828-6.516zm2.906.328c0 1.906.392 3.406 1.172 4.5.782 1.083 1.876 1.625 3.282 1.625 1.822 0 3.162-.828 4.016-2.484v-7.719c-.886-1.615-2.214-2.422-3.984-2.422-1.406 0-2.506.547-3.298 1.641s-1.188 2.714-1.188 4.859zm18.642-6.593c1.28-1.573 2.948-2.359 5-2.359 3.572 0 5.374 2.016 5.406 6.047v11.172h-2.89V12.813c-.012-1.219-.292-2.12-.844-2.703-.542-.583-1.392-.875-2.548-.875-.938 0-1.76.25-2.468.75s-1.26 1.156-1.656 1.969v12.047h-2.892v-24h2.892v9.141zM250.594 3v4.094h3.156v2.234h-3.156v10.484c0 .677.14 1.188.422 1.531.28.333.76.5 1.438.5.332 0 .79-.063 1.374-.188v2.344a8.39 8.39 0 0 1-2.218.312c-1.292 0-2.266-.391-2.922-1.172s-.984-1.891-.984-3.328V9.326h-3.08V7.092h3.08V2.998h2.89zm16.39 16.516c0-.781-.296-1.385-.89-1.812-.584-.438-1.61-.813-3.078-1.125-1.458-.313-2.62-.688-3.484-1.125-.854-.438-1.49-.958-1.908-1.563-.406-.604-.608-1.323-.608-2.156 0-1.385.582-2.557 1.75-3.516 1.176-.958 2.676-1.438 4.5-1.438 1.916 0 3.468.495 4.656 1.484 1.198.99 1.796 2.255 1.796 3.797h-2.906c0-.792-.338-1.474-1.016-2.047-.666-.573-1.51-.859-2.53-.859-1.052 0-1.876.229-2.47.688-.592.458-.89 1.057-.89 1.797 0 .698.276 1.224.828 1.578s1.548.693 2.984 1.016c1.448.323 2.62.708 3.516 1.156s1.558.99 1.984 1.625c.438.625.658 1.391.658 2.297 0 1.51-.606 2.724-1.814 3.641-1.208.906-2.776 1.359-4.702 1.359-1.354 0-2.552-.239-3.594-.719s-1.86-1.146-2.454-2c-.582-.865-.874-1.797-.874-2.797h2.89c.052.969.438 1.74 1.156 2.313.73.562 1.688.844 2.876.844 1.094 0 1.968-.219 2.624-.656.668-.448 1-1.042 1-1.781zm23.392-4.719h-5.344V24h-3.016V1.25h7.53c2.564 0 4.532.583 5.908 1.75 1.384 1.167 2.078 2.865 2.078 5.094 0 1.417-.386 2.651-1.156 3.703-.762 1.052-1.824 1.839-3.188 2.359l5.344 9.656V24h-3.22l-4.936-9.203zm-5.344-2.453h4.608c1.49 0 2.672-.385 3.548-1.156.884-.771 1.328-1.802 1.328-3.094 0-1.406-.422-2.484-1.266-3.234-.834-.75-2.042-1.13-3.626-1.141h-4.592v8.625zm23.28 11.968c-2.292 0-4.156-.75-5.594-2.25-1.436-1.51-2.156-3.526-2.156-6.047v-.531c0-1.677.318-3.172.954-4.484.646-1.323 1.542-2.354 2.688-3.094 1.156-.75 2.406-1.125 3.75-1.125 2.198 0 3.906.724 5.124 2.172s1.828 3.521 1.828 6.219v1.203h-11.452c.04 1.667.526 3.016 1.452 4.047.938 1.021 2.126 1.531 3.562 1.531 1.022 0 1.886-.208 2.594-.625s1.328-.969 1.86-1.656l1.766 1.375c-1.418 2.177-3.542 3.266-6.376 3.266zm-.358-15.156c-1.168 0-2.146.427-2.938 1.281-.792.844-1.282 2.031-1.47 3.562h8.47v-.219c-.084-1.469-.48-2.604-1.188-3.406-.708-.813-1.666-1.219-2.874-1.219zm20.156 10.36c0-.781-.298-1.385-.892-1.812-.582-.438-1.608-.813-3.078-1.125-1.458-.313-2.62-.688-3.484-1.125-.854-.438-1.49-.958-1.906-1.563-.406-.604-.61-1.323-.61-2.156 0-1.385.584-2.557 1.75-3.516 1.178-.958 2.678-1.438 4.5-1.438 1.918 0 3.47.495 4.656 1.484 1.198.99 1.798 2.255 1.798 3.797h-2.906c0-.792-.34-1.474-1.016-2.047-.666-.573-1.51-.859-2.532-.859-1.052 0-1.874.229-2.468.688s-.89 1.057-.89 1.797c0 .698.276 1.224.828 1.578s1.546.693 2.984 1.016c1.448.323 2.62.708 3.516 1.156s1.556.99 1.984 1.625c.438.625.656 1.391.656 2.297 0 1.51-.604 2.724-1.812 3.641-1.208.906-2.776 1.359-4.704 1.359-1.354 0-2.552-.239-3.594-.719s-1.858-1.146-2.452-2c-.584-.865-.876-1.797-.876-2.797h2.892c.052.969.436 1.74 1.156 2.313.728.562 1.686.844 2.874.844 1.094 0 1.97-.219 2.626-.656.666-.448 1-1.042 1-1.781zm13.672 4.796c-2.292 0-4.158-.75-5.594-2.25-1.438-1.51-2.156-3.526-2.156-6.047v-.531c0-1.677.316-3.172.952-4.484.646-1.323 1.542-2.354 2.688-3.094 1.156-.75 2.406-1.125 3.75-1.125 2.198 0 3.906.724 5.124 2.172 1.22 1.448 1.83 3.521 1.83 6.219v1.203h-11.454c.042 1.667.526 3.016 1.454 4.047.936 1.021 2.124 1.531 3.562 1.531 1.02 0 1.884-.208 2.594-.625a6.511 6.511 0 0 0 1.858-1.656l1.766 1.375c-1.416 2.177-3.542 3.266-6.374 3.266zm-.36-15.156c-1.166 0-2.146.427-2.938 1.281-.792.844-1.28 2.031-1.468 3.562h8.468v-.219c-.082-1.469-.478-2.604-1.188-3.406-.708-.813-1.666-1.219-2.874-1.219zm18.484.532a8.664 8.664 0 0 0-1.422-.109c-1.896 0-3.182.807-3.86 2.422v12h-2.89V7.095h2.812l.048 1.953c.948-1.51 2.292-2.266 4.03-2.266.564 0 .99.073 1.282.219v2.688zm8.532 10.39 4.186-12.984h2.954L369.516 24h-2.204l-6.124-16.906h2.952l4.298 12.984zm16.718 4.234c-2.292 0-4.156-.75-5.594-2.25-1.438-1.51-2.156-3.526-2.156-6.047v-.531c0-1.677.318-3.172.954-4.484.646-1.323 1.542-2.354 2.686-3.094 1.158-.75 2.408-1.125 3.75-1.125 2.198 0 3.908.724 5.126 2.172s1.828 3.521 1.828 6.219v1.203h-11.454c.042 1.667.526 3.016 1.454 4.047.938 1.021 2.126 1.531 3.562 1.531 1.022 0 1.886-.208 2.594-.625s1.328-.969 1.86-1.656l1.766 1.375c-1.418 2.177-3.542 3.266-6.376 3.266zm-.36-15.156c-1.166 0-2.144.427-2.936 1.281-.792.844-1.282 2.031-1.47 3.562h8.47v-.219c-.084-1.469-.48-2.604-1.188-3.406-.708-.813-1.666-1.219-2.876-1.219zm9.61 6.25c0-2.594.614-4.677 1.844-6.25 1.23-1.583 2.838-2.375 4.828-2.375 1.98 0 3.546.677 4.704 2.031V0h2.89v24h-2.656l-.14-1.812c-1.158 1.417-2.766 2.125-4.83 2.125-1.958 0-3.556-.802-4.796-2.406-1.23-1.604-1.844-3.698-1.844-6.281v-.219zm2.89.328c0 1.917.396 3.417 1.188 4.5s1.886 1.625 3.282 1.625c1.832 0 3.172-.823 4.016-2.469v-7.766c-.866-1.594-2.194-2.391-3.986-2.391-1.416 0-2.52.547-3.312 1.641s-1.188 2.714-1.188 4.859zm26.688 12.485h-2.328V1.25h2.328v26.969zM437.312 24V1.25h6.422c1.98 0 3.73.438 5.25 1.313 1.522.875 2.694 2.12 3.516 3.734.834 1.615 1.256 3.469 1.266 5.563v1.453c0 2.146-.418 4.026-1.25 5.641-.824 1.615-2.006 2.854-3.548 3.719-1.53.865-3.316 1.307-5.358 1.328h-6.298zm3-20.281v17.828h3.156c2.314 0 4.11-.719 5.392-2.156 1.292-1.438 1.936-3.485 1.936-6.141v-1.328c0-2.583-.608-4.589-1.828-6.016-1.208-1.437-2.926-2.167-5.156-2.187h-3.5zm24.564 20.593c-2.292 0-4.158-.75-5.594-2.25-1.438-1.51-2.158-3.526-2.158-6.047v-.531c0-1.677.318-3.172.954-4.484.646-1.323 1.542-2.354 2.688-3.094 1.156-.75 2.406-1.125 3.75-1.125 2.198 0 3.906.724 5.124 2.172 1.22 1.448 1.828 3.521 1.828 6.219v1.203h-11.452c.042 1.667.526 3.016 1.452 4.047.938 1.021 2.126 1.531 3.564 1.531 1.02 0 1.884-.208 2.592-.625a6.492 6.492 0 0 0 1.86-1.656l1.766 1.375c-1.416 2.177-3.542 3.266-6.374 3.266zm-.36-15.156c-1.168 0-2.146.427-2.938 1.281-.792.844-1.282 2.031-1.468 3.562h8.468v-.219c-.084-1.469-.48-2.604-1.188-3.406-.708-.813-1.666-1.219-2.874-1.219zm15.672 10.922 4.188-12.984h2.952L481.266 24h-2.204l-6.124-16.906h2.952l4.298 12.984zm16.718 4.234c-2.292 0-4.156-.75-5.594-2.25-1.436-1.51-2.156-3.526-2.156-6.047v-.531c0-1.677.318-3.172.954-4.484.646-1.323 1.542-2.354 2.686-3.094 1.158-.75 2.408-1.125 3.75-1.125 2.198 0 3.908.724 5.126 2.172s1.828 3.521 1.828 6.219v1.203h-11.454c.042 1.667.526 3.016 1.454 4.047.938 1.021 2.124 1.531 3.562 1.531 1.022 0 1.886-.208 2.594-.625s1.328-.969 1.86-1.656l1.766 1.375c-1.418 2.177-3.542 3.266-6.376 3.266zm-.36-15.156c-1.166 0-2.144.427-2.936 1.281-.792.844-1.282 2.031-1.47 3.562h8.47v-.219c-.084-1.469-.48-2.604-1.188-3.406-.708-.813-1.666-1.219-2.876-1.219zM510 24h-2.89V0H510v24zm3.876-8.609c0-1.656.322-3.146.968-4.469.656-1.323 1.562-2.344 2.718-3.062 1.168-.719 2.496-1.078 3.984-1.078 2.302 0 4.162.797 5.578 2.39 1.428 1.594 2.142 3.714 2.142 6.359v.203c0 1.646-.318 3.125-.954 4.437-.624 1.302-1.526 2.318-2.702 3.047-1.168.729-2.512 1.094-4.032 1.094-2.292 0-4.15-.797-5.578-2.391-1.416-1.594-2.124-3.703-2.124-6.328v-.203zm2.906.343c0 1.875.432 3.38 1.296 4.516.876 1.135 2.042 1.703 3.5 1.703 1.468 0 2.636-.573 3.5-1.719.864-1.156 1.298-2.771 1.298-4.844 0-1.854-.444-3.354-1.33-4.5-.874-1.156-2.04-1.734-3.5-1.734-1.426 0-2.578.568-3.452 1.703-.876 1.135-1.312 2.76-1.312 4.875zm30.39 0c0 2.573-.588 4.646-1.766 6.219-1.176 1.573-2.77 2.359-4.782 2.359-2.052 0-3.666-.651-4.842-1.953V30.5h-2.892V7.094h2.642l.14 1.875c1.176-1.458 2.812-2.188 4.906-2.188 2.032 0 3.636.766 4.812 2.297 1.188 1.531 1.782 3.661 1.782 6.391v.266zm-2.89-.328c0-1.906-.406-3.412-1.22-4.516-.812-1.104-1.926-1.656-3.344-1.656-1.75 0-3.062.776-3.936 2.328v8.078c.864 1.542 2.186 2.313 3.968 2.313 1.386 0 2.484-.547 3.296-1.641.824-1.104 1.236-2.739 1.236-4.906zm13.594 8.906c-2.292 0-4.158-.75-5.594-2.25-1.438-1.51-2.158-3.526-2.158-6.047v-.531c0-1.677.318-3.172.954-4.484.646-1.323 1.542-2.354 2.688-3.094 1.156-.75 2.406-1.125 3.75-1.125 2.198 0 3.906.724 5.124 2.172 1.22 1.448 1.828 3.521 1.828 6.219v1.203h-11.452c.042 1.667.526 3.016 1.452 4.047.938 1.021 2.126 1.531 3.564 1.531 1.02 0 1.884-.208 2.592-.625a6.492 6.492 0 0 0 1.86-1.656l1.766 1.375c-1.416 2.177-3.542 3.266-6.374 3.266zm-.36-15.156c-1.168 0-2.146.427-2.938 1.281-.792.844-1.282 2.031-1.468 3.562h8.468v-.219c-.084-1.469-.48-2.604-1.188-3.406-.708-.813-1.666-1.219-2.874-1.219zm9.608 6.25c0-2.594.616-4.677 1.844-6.25 1.23-1.583 2.84-2.375 4.828-2.375 1.98 0 3.548.677 4.704 2.031V0h2.89v24h-2.656l-.14-1.812c-1.156 1.417-2.766 2.125-4.828 2.125-1.958 0-3.558-.802-4.798-2.406-1.228-1.604-1.844-3.698-1.844-6.281v-.219zm2.892.328c0 1.917.396 3.417 1.188 4.5.79 1.083 1.884 1.625 3.28 1.625 1.834 0 3.172-.823 4.016-2.469v-7.766c-.864-1.594-2.192-2.391-3.984-2.391-1.418 0-2.522.547-3.312 1.641-.792 1.094-1.188 2.714-1.188 4.859zm38.78 4.282 3.25-12.922h2.892L610.016 24h-2.344l-4.11-12.813-4 12.813h-2.344l-4.906-16.906h2.876l3.328 12.656 3.938-12.656h2.328l4.014 12.922zM621.032 24h-2.892V7.094h2.892V24zm-3.126-21.391c0-.469.14-.865.422-1.188.292-.323.718-.484 1.282-.484.562 0 .988.161 1.28.484s.438.719.438 1.188-.146.859-.438 1.172c-.292.312-.718.469-1.28.469-.564 0-.99-.156-1.282-.469-.282-.312-.422-.703-.422-1.172zM629.594 3v4.094h3.156v2.234h-3.156v10.484c0 .677.14 1.188.422 1.531.28.333.76.5 1.438.5.332 0 .79-.063 1.374-.188v2.344a8.39 8.39 0 0 1-2.218.312c-1.292 0-2.266-.391-2.922-1.172s-.984-1.891-.984-3.328V9.326h-3.08V7.092h3.08V2.998h2.89zm9.438 6.141c1.28-1.573 2.948-2.359 5-2.359 3.572 0 5.374 2.016 5.406 6.047v11.172h-2.892V12.813c-.01-1.219-.29-2.12-.842-2.703-.542-.583-1.392-.875-2.548-.875-.938 0-1.76.25-2.468.75s-1.26 1.156-1.656 1.969v12.047h-2.892v-24h2.892v9.141z"/></symbol><symbol id="icon-heart" viewBox="0 0 34 32"><path fill="#ff6b08" style="fill:var(--color2,#ff6b08)" d="m17.231 31.705-2.412-2.412C5.859 21.367.001 16.025.001 9.478L0 9.354A9.354 9.354 0 0 1 9.484.001h-.007c3.1.032 5.868 1.423 7.742 3.605l.012.014A10.322 10.322 0 0 1 24.979.002h.006l.124-.001a9.354 9.354 0 0 1 9.354 9.354l-.001.13v-.007c0 6.548-5.858 11.889-14.818 19.815l-2.412 2.412z"/></symbol></defs></svg>