<svg aria-hidden="true" style="position: absolute; width: 0; height: 0; overflow: hidden;" version="1.1" xmlns="http://www.w3.org/2000/svg" xmlns:xlink="http://www.w3.org/1999/xlink">
<defs>
<symbol id="icon-All-Rights-Reserved" viewBox="0 0 650 32">
<path fill="#545454" style="fill: var(--color1, #545454)" d="M17.906 14.672c0 1.594-0.453 2.812-1.359 3.656-0.896 0.833-2.167 1.25-3.812 1.25-1.635 0-2.948-0.547-3.938-1.64-0.979-1.104-1.469-2.604-1.469-4.5v-1.719c0-1.833 0.495-3.297 1.484-4.391 1-1.104 2.307-1.656 3.922-1.656 1.667 0 2.948 0.427 3.844 1.281s1.344 2.057 1.344 3.609h-2.281c0-1.031-0.25-1.766-0.75-2.203-0.49-0.448-1.208-0.672-2.156-0.672-0.979 0-1.75 0.359-2.313 1.078s-0.844 1.719-0.844 3v1.766c0 1.25 0.281 2.234 0.844 2.953s1.333 1.078 2.313 1.078c0.958 0 1.677-0.219 2.156-0.656 0.49-0.438 0.734-1.182 0.734-2.235h2.281zM3.641 12.609c0 1.792 0.417 3.453 1.25 4.984 0.833 1.521 1.964 2.713 3.391 3.578 1.438 0.865 2.99 1.297 4.656 1.297s3.214-0.432 4.641-1.297c1.427-0.865 2.557-2.057 3.391-3.578 0.833-1.531 1.25-3.193 1.25-4.984 0-1.771-0.412-3.411-1.234-4.922s-1.953-2.698-3.391-3.562c-1.427-0.875-2.979-1.313-4.656-1.313-1.667 0-3.219 0.432-4.656 1.297-1.438 0.854-2.573 2.042-3.406 3.562-0.823 1.521-1.234 3.167-1.234 4.938zM1.844 12.609c0-2.104 0.484-4.057 1.453-5.859 0.979-1.802 2.328-3.219 4.047-4.25 1.729-1.041 3.594-1.562 5.594-1.562s3.859 0.521 5.578 1.563c1.719 1.031 3.063 2.448 4.031 4.25 0.979 1.802 1.469 3.755 1.469 5.859 0 2.052-0.469 3.974-1.406 5.766s-2.271 3.234-4 4.328c-1.719 1.083-3.609 1.625-5.672 1.625-2.052 0-3.943-0.537-5.672-1.609-1.719-1.083-3.052-2.521-4-4.313s-1.422-3.724-1.422-5.797zM58.25 24h-14.906v-2.078l7.875-8.75c1.167-1.323 1.969-2.396 2.406-3.219 0.448-0.833 0.672-1.693 0.672-2.578 0-1.188-0.359-2.161-1.078-2.922s-1.677-1.141-2.875-1.141c-1.438 0-2.557 0.412-3.359 1.234-0.792 0.813-1.188 1.948-1.188 3.406h-2.891c0-2.094 0.672-3.787 2.016-5.078 1.354-1.292 3.162-1.938 5.422-1.938 2.115 0 3.786 0.557 5.016 1.672 1.229 1.104 1.844 2.578 1.844 4.422 0 2.239-1.427 4.906-4.281 8l-6.094 6.609h11.422v2.359zM75.578 14.297c0 3.386-0.578 5.901-1.734 7.547s-2.964 2.469-5.422 2.469c-2.427 0-4.224-0.802-5.391-2.406-1.167-1.615-1.771-4.021-1.812-7.219v-3.86c0-3.344 0.578-5.828 1.734-7.453s2.969-2.437 5.437-2.437c2.448 0 4.25 0.787 5.406 2.359 1.156 1.563 1.75 3.979 1.781 7.25v3.75zM72.688 10.344c0-2.448-0.344-4.229-1.031-5.344-0.687-1.125-1.776-1.688-3.266-1.688-1.479 0-2.557 0.557-3.234 1.672s-1.026 2.828-1.047 5.141v4.625c0 2.458 0.354 4.276 1.062 5.453 0.719 1.167 1.802 1.75 3.25 1.75 1.427 0 2.484-0.552 3.172-1.656 0.698-1.104 1.062-2.844 1.094-5.219v-4.734zM94.188 24h-14.906v-2.078l7.875-8.75c1.167-1.323 1.969-2.396 2.406-3.219 0.448-0.833 0.672-1.693 0.672-2.578 0-1.188-0.359-2.161-1.078-2.922s-1.677-1.141-2.875-1.141c-1.437 0-2.557 0.412-3.359 1.234-0.792 0.813-1.187 1.948-1.187 3.406h-2.891c0-2.094 0.672-3.787 2.016-5.078 1.354-1.292 3.161-1.938 5.422-1.938 2.115 0 3.787 0.557 5.016 1.672 1.229 1.104 1.844 2.578 1.844 4.422 0 2.239-1.427 4.906-4.281 8l-6.094 6.609h11.422v2.359zM111.516 14.297c0 3.386-0.578 5.901-1.734 7.547s-2.963 2.469-5.422 2.469c-2.427 0-4.224-0.802-5.391-2.406-1.167-1.615-1.771-4.021-1.813-7.219v-3.86c0-3.344 0.578-5.828 1.734-7.453s2.969-2.437 5.438-2.437c2.448 0 4.25 0.787 5.406 2.359 1.156 1.563 1.75 3.979 1.781 7.25v3.75zM108.625 10.344c0-2.448-0.344-4.229-1.031-5.344-0.688-1.125-1.776-1.688-3.266-1.688-1.479 0-2.557 0.557-3.234 1.672s-1.026 2.828-1.047 5.141v4.625c0 2.458 0.354 4.276 1.063 5.453 0.719 1.167 1.802 1.75 3.25 1.75 1.427 0 2.484-0.552 3.172-1.656 0.698-1.104 1.063-2.844 1.094-5.219v-4.734zM126.328 28.219h-2.328v-26.969h2.328v26.969zM152.219 18.063h-9.531l-2.141 5.937h-3.094l8.687-22.75h2.625l8.703 22.75h-3.078l-2.172-5.938zM143.594 15.594h7.734l-3.875-10.641-3.859 10.641zM163.219 24h-2.891v-24h2.891v24zM171 24h-2.891v-24h2.891v24zM192.375 14.797h-5.344v9.203h-3.016v-22.75h7.531c2.563 0 4.531 0.583 5.906 1.75 1.385 1.167 2.078 2.865 2.078 5.094 0 1.417-0.385 2.651-1.156 3.703-0.76 1.052-1.823 1.839-3.187 2.359l5.344 9.656v0.188h-3.22l-4.937-9.203zM187.031 12.344h4.609c1.49 0 2.672-0.385 3.547-1.156 0.885-0.771 1.328-1.802 1.328-3.094 0-1.406-0.422-2.484-1.266-3.234-0.833-0.75-2.042-1.13-3.625-1.141h-4.594v8.625zM206.438 24h-2.892v-16.906h2.892v16.906zM203.312 2.609c0-0.469 0.142-0.865 0.422-1.188 0.292-0.323 0.72-0.484 1.282-0.484s0.99 0.161 1.28 0.484c0.292 0.323 0.438 0.719 0.438 1.188s-0.146 0.859-0.438 1.172c-0.29 0.312-0.718 0.469-1.28 0.469s-0.99-0.156-1.282-0.469c-0.28-0.312-0.422-0.703-0.422-1.172zM210.39 15.406c0-2.635 0.61-4.729 1.828-6.281 1.22-1.563 2.834-2.344 4.844-2.344 2.062 0 3.672 0.729 4.828 2.188l0.142-1.875h2.64v16.5c0 2.187-0.652 3.911-1.954 5.172-1.29 1.26-3.030 1.891-5.218 1.891-1.218 0-2.412-0.26-3.578-0.781s-2.058-1.234-2.672-2.141l1.5-1.734c1.24 1.531 2.756 2.297 4.546 2.297 1.408 0 2.5-0.396 3.282-1.187 0.792-0.792 1.188-1.906 1.188-3.344v-1.453c-1.156 1.333-2.734 2-4.734 2-1.98 0-3.584-0.797-4.814-2.391-1.218-1.594-1.828-3.766-1.828-6.516zM213.296 15.734c0 1.906 0.392 3.406 1.172 4.5 0.782 1.083 1.876 1.625 3.282 1.625 1.822 0 3.162-0.828 4.016-2.484v-7.719c-0.886-1.615-2.214-2.422-3.984-2.422-1.406 0-2.506 0.547-3.298 1.641s-1.188 2.714-1.188 4.859zM231.938 9.141c1.28-1.573 2.948-2.359 5-2.359 3.572 0 5.374 2.016 5.406 6.047v11.172h-2.89v-11.188c-0.012-1.219-0.292-2.12-0.844-2.703-0.542-0.583-1.392-0.875-2.548-0.875-0.938 0-1.76 0.25-2.468 0.75s-1.26 1.156-1.656 1.969v12.047h-2.892v-24h2.892v9.141zM250.594 3v4.094h3.156v2.234h-3.156v10.484c0 0.677 0.14 1.188 0.422 1.531 0.28 0.333 0.76 0.5 1.438 0.5 0.332 0 0.79-0.063 1.374-0.188v2.344c-0.76 0.208-1.5 0.312-2.218 0.312-1.292 0-2.266-0.391-2.922-1.172s-0.984-1.891-0.984-3.328v-10.485h-3.080v-2.234h3.080v-4.094h2.89zM266.984 19.516c0-0.781-0.296-1.385-0.89-1.812-0.584-0.438-1.61-0.813-3.078-1.125-1.458-0.313-2.62-0.688-3.484-1.125-0.854-0.438-1.49-0.958-1.908-1.563-0.406-0.604-0.608-1.323-0.608-2.156 0-1.385 0.582-2.557 1.75-3.516 1.176-0.958 2.676-1.438 4.5-1.438 1.916 0 3.468 0.495 4.656 1.484 1.198 0.99 1.796 2.255 1.796 3.797h-2.906c0-0.792-0.338-1.474-1.016-2.047-0.666-0.573-1.51-0.859-2.53-0.859-1.052 0-1.876 0.229-2.47 0.688-0.592 0.458-0.89 1.057-0.89 1.797 0 0.698 0.276 1.224 0.828 1.578s1.548 0.693 2.984 1.016c1.448 0.323 2.62 0.708 3.516 1.156s1.558 0.99 1.984 1.625c0.438 0.625 0.658 1.391 0.658 2.297 0 1.51-0.606 2.724-1.814 3.641-1.208 0.906-2.776 1.359-4.702 1.359-1.354 0-2.552-0.239-3.594-0.719s-1.86-1.146-2.454-2c-0.582-0.865-0.874-1.797-0.874-2.797h2.89c0.052 0.969 0.438 1.74 1.156 2.313 0.73 0.562 1.688 0.844 2.876 0.844 1.094 0 1.968-0.219 2.624-0.656 0.668-0.448 1-1.042 1-1.781zM290.376 14.797h-5.344v9.203h-3.016v-22.75h7.53c2.564 0 4.532 0.583 5.908 1.75 1.384 1.167 2.078 2.865 2.078 5.094 0 1.417-0.386 2.651-1.156 3.703-0.762 1.052-1.824 1.839-3.188 2.359l5.344 9.656v0.188h-3.22l-4.936-9.203zM285.032 12.344h4.608c1.49 0 2.672-0.385 3.548-1.156 0.884-0.771 1.328-1.802 1.328-3.094 0-1.406-0.422-2.484-1.266-3.234-0.834-0.75-2.042-1.13-3.626-1.141h-4.592v8.625zM308.312 24.312c-2.292 0-4.156-0.75-5.594-2.25-1.436-1.51-2.156-3.526-2.156-6.047v-0.531c0-1.677 0.318-3.172 0.954-4.484 0.646-1.323 1.542-2.354 2.688-3.094 1.156-0.75 2.406-1.125 3.75-1.125 2.198 0 3.906 0.724 5.124 2.172s1.828 3.521 1.828 6.219v1.203h-11.452c0.040 1.667 0.526 3.016 1.452 4.047 0.938 1.021 2.126 1.531 3.562 1.531 1.022 0 1.886-0.208 2.594-0.625s1.328-0.969 1.86-1.656l1.766 1.375c-1.418 2.177-3.542 3.266-6.376 3.266zM307.954 9.156c-1.168 0-2.146 0.427-2.938 1.281-0.792 0.844-1.282 2.031-1.47 3.562h8.47v-0.219c-0.084-1.469-0.48-2.604-1.188-3.406-0.708-0.813-1.666-1.219-2.874-1.219zM328.11 19.516c0-0.781-0.298-1.385-0.892-1.812-0.582-0.438-1.608-0.813-3.078-1.125-1.458-0.313-2.62-0.688-3.484-1.125-0.854-0.438-1.49-0.958-1.906-1.563-0.406-0.604-0.61-1.323-0.61-2.156 0-1.385 0.584-2.557 1.75-3.516 1.178-0.958 2.678-1.438 4.5-1.438 1.918 0 3.47 0.495 4.656 1.484 1.198 0.99 1.798 2.255 1.798 3.797h-2.906c0-0.792-0.34-1.474-1.016-2.047-0.666-0.573-1.51-0.859-2.532-0.859-1.052 0-1.874 0.229-2.468 0.688s-0.89 1.057-0.89 1.797c0 0.698 0.276 1.224 0.828 1.578s1.546 0.693 2.984 1.016c1.448 0.323 2.62 0.708 3.516 1.156s1.556 0.99 1.984 1.625c0.438 0.625 0.656 1.391 0.656 2.297 0 1.51-0.604 2.724-1.812 3.641-1.208 0.906-2.776 1.359-4.704 1.359-1.354 0-2.552-0.239-3.594-0.719s-1.858-1.146-2.452-2c-0.584-0.865-0.876-1.797-0.876-2.797h2.892c0.052 0.969 0.436 1.74 1.156 2.313 0.728 0.562 1.686 0.844 2.874 0.844 1.094 0 1.97-0.219 2.626-0.656 0.666-0.448 1-1.042 1-1.781zM341.782 24.312c-2.292 0-4.158-0.75-5.594-2.25-1.438-1.51-2.156-3.526-2.156-6.047v-0.531c0-1.677 0.316-3.172 0.952-4.484 0.646-1.323 1.542-2.354 2.688-3.094 1.156-0.75 2.406-1.125 3.75-1.125 2.198 0 3.906 0.724 5.124 2.172 1.22 1.448 1.83 3.521 1.83 6.219v1.203h-11.454c0.042 1.667 0.526 3.016 1.454 4.047 0.936 1.021 2.124 1.531 3.562 1.531 1.020 0 1.884-0.208 2.594-0.625 0.708-0.417 1.328-0.969 1.858-1.656l1.766 1.375c-1.416 2.177-3.542 3.266-6.374 3.266zM341.422 9.156c-1.166 0-2.146 0.427-2.938 1.281-0.792 0.844-1.28 2.031-1.468 3.562h8.468v-0.219c-0.082-1.469-0.478-2.604-1.188-3.406-0.708-0.813-1.666-1.219-2.874-1.219zM359.906 9.688c-0.438-0.073-0.912-0.109-1.422-0.109-1.896 0-3.182 0.807-3.86 2.422v12h-2.89v-16.906h2.812l0.048 1.953c0.948-1.51 2.292-2.266 4.030-2.266 0.564 0 0.99 0.073 1.282 0.219v2.688zM368.438 20.078l4.186-12.984h2.954l-6.062 16.906h-2.204l-6.124-16.906h2.952l4.298 12.984zM385.156 24.312c-2.292 0-4.156-0.75-5.594-2.25-1.438-1.51-2.156-3.526-2.156-6.047v-0.531c0-1.677 0.318-3.172 0.954-4.484 0.646-1.323 1.542-2.354 2.686-3.094 1.158-0.75 2.408-1.125 3.75-1.125 2.198 0 3.908 0.724 5.126 2.172s1.828 3.521 1.828 6.219v1.203h-11.454c0.042 1.667 0.526 3.016 1.454 4.047 0.938 1.021 2.126 1.531 3.562 1.531 1.022 0 1.886-0.208 2.594-0.625s1.328-0.969 1.86-1.656l1.766 1.375c-1.418 2.177-3.542 3.266-6.376 3.266zM384.796 9.156c-1.166 0-2.144 0.427-2.936 1.281-0.792 0.844-1.282 2.031-1.47 3.562h8.47v-0.219c-0.084-1.469-0.48-2.604-1.188-3.406-0.708-0.813-1.666-1.219-2.876-1.219zM394.406 15.406c0-2.594 0.614-4.677 1.844-6.25 1.23-1.583 2.838-2.375 4.828-2.375 1.98 0 3.546 0.677 4.704 2.031v-8.812h2.89v24h-2.656l-0.14-1.812c-1.158 1.417-2.766 2.125-4.83 2.125-1.958 0-3.556-0.802-4.796-2.406-1.23-1.604-1.844-3.698-1.844-6.281v-0.219zM397.296 15.734c0 1.917 0.396 3.417 1.188 4.5s1.886 1.625 3.282 1.625c1.832 0 3.172-0.823 4.016-2.469v-7.766c-0.866-1.594-2.194-2.391-3.986-2.391-1.416 0-2.52 0.547-3.312 1.641s-1.188 2.714-1.188 4.859zM423.984 28.219h-2.328v-26.969h2.328v26.969zM437.312 24v-22.75h6.422c1.98 0 3.73 0.438 5.25 1.313 1.522 0.875 2.694 2.12 3.516 3.734 0.834 1.615 1.256 3.469 1.266 5.563v1.453c0 2.146-0.418 4.026-1.25 5.641-0.824 1.615-2.006 2.854-3.548 3.719-1.53 0.865-3.316 1.307-5.358 1.328h-6.298zM440.312 3.719v17.828h3.156c2.314 0 4.11-0.719 5.392-2.156 1.292-1.438 1.936-3.485 1.936-6.141v-1.328c0-2.583-0.608-4.589-1.828-6.016-1.208-1.437-2.926-2.167-5.156-2.187h-3.5zM464.876 24.312c-2.292 0-4.158-0.75-5.594-2.25-1.438-1.51-2.158-3.526-2.158-6.047v-0.531c0-1.677 0.318-3.172 0.954-4.484 0.646-1.323 1.542-2.354 2.688-3.094 1.156-0.75 2.406-1.125 3.75-1.125 2.198 0 3.906 0.724 5.124 2.172 1.22 1.448 1.828 3.521 1.828 6.219v1.203h-11.452c0.042 1.667 0.526 3.016 1.452 4.047 0.938 1.021 2.126 1.531 3.564 1.531 1.020 0 1.884-0.208 2.592-0.625 0.71-0.417 1.33-0.969 1.86-1.656l1.766 1.375c-1.416 2.177-3.542 3.266-6.374 3.266zM464.516 9.156c-1.168 0-2.146 0.427-2.938 1.281-0.792 0.844-1.282 2.031-1.468 3.562h8.468v-0.219c-0.084-1.469-0.48-2.604-1.188-3.406-0.708-0.813-1.666-1.219-2.874-1.219zM480.188 20.078l4.188-12.984h2.952l-6.062 16.906h-2.204l-6.124-16.906h2.952l4.298 12.984zM496.906 24.312c-2.292 0-4.156-0.75-5.594-2.25-1.436-1.51-2.156-3.526-2.156-6.047v-0.531c0-1.677 0.318-3.172 0.954-4.484 0.646-1.323 1.542-2.354 2.686-3.094 1.158-0.75 2.408-1.125 3.75-1.125 2.198 0 3.908 0.724 5.126 2.172s1.828 3.521 1.828 6.219v1.203h-11.454c0.042 1.667 0.526 3.016 1.454 4.047 0.938 1.021 2.124 1.531 3.562 1.531 1.022 0 1.886-0.208 2.594-0.625s1.328-0.969 1.86-1.656l1.766 1.375c-1.418 2.177-3.542 3.266-6.376 3.266zM496.546 9.156c-1.166 0-2.144 0.427-2.936 1.281-0.792 0.844-1.282 2.031-1.47 3.562h8.47v-0.219c-0.084-1.469-0.48-2.604-1.188-3.406-0.708-0.813-1.666-1.219-2.876-1.219zM510 24h-2.89v-24h2.89v24zM513.876 15.391c0-1.656 0.322-3.146 0.968-4.469 0.656-1.323 1.562-2.344 2.718-3.062 1.168-0.719 2.496-1.078 3.984-1.078 2.302 0 4.162 0.797 5.578 2.39 1.428 1.594 2.142 3.714 2.142 6.359v0.203c0 1.646-0.318 3.125-0.954 4.437-0.624 1.302-1.526 2.318-2.702 3.047-1.168 0.729-2.512 1.094-4.032 1.094-2.292 0-4.15-0.797-5.578-2.391-1.416-1.594-2.124-3.703-2.124-6.328v-0.203zM516.782 15.734c0 1.875 0.432 3.38 1.296 4.516 0.876 1.135 2.042 1.703 3.5 1.703 1.468 0 2.636-0.573 3.5-1.719 0.864-1.156 1.298-2.771 1.298-4.844 0-1.854-0.444-3.354-1.33-4.5-0.874-1.156-2.040-1.734-3.5-1.734-1.426 0-2.578 0.568-3.452 1.703-0.876 1.135-1.312 2.76-1.312 4.875zM547.172 15.734c0 2.573-0.588 4.646-1.766 6.219-1.176 1.573-2.77 2.359-4.782 2.359-2.052 0-3.666-0.651-4.842-1.953v8.141h-2.892v-23.406h2.642l0.14 1.875c1.176-1.458 2.812-2.188 4.906-2.188 2.032 0 3.636 0.766 4.812 2.297 1.188 1.531 1.782 3.661 1.782 6.391v0.266zM544.282 15.406c0-1.906-0.406-3.412-1.22-4.516-0.812-1.104-1.926-1.656-3.344-1.656-1.75 0-3.062 0.776-3.936 2.328v8.078c0.864 1.542 2.186 2.313 3.968 2.313 1.386 0 2.484-0.547 3.296-1.641 0.824-1.104 1.236-2.739 1.236-4.906zM557.876 24.312c-2.292 0-4.158-0.75-5.594-2.25-1.438-1.51-2.158-3.526-2.158-6.047v-0.531c0-1.677 0.318-3.172 0.954-4.484 0.646-1.323 1.542-2.354 2.688-3.094 1.156-0.75 2.406-1.125 3.75-1.125 2.198 0 3.906 0.724 5.124 2.172 1.22 1.448 1.828 3.521 1.828 6.219v1.203h-11.452c0.042 1.667 0.526 3.016 1.452 4.047 0.938 1.021 2.126 1.531 3.564 1.531 1.020 0 1.884-0.208 2.592-0.625 0.71-0.417 1.33-0.969 1.86-1.656l1.766 1.375c-1.416 2.177-3.542 3.266-6.374 3.266zM557.516 9.156c-1.168 0-2.146 0.427-2.938 1.281-0.792 0.844-1.282 2.031-1.468 3.562h8.468v-0.219c-0.084-1.469-0.48-2.604-1.188-3.406-0.708-0.813-1.666-1.219-2.874-1.219zM567.124 15.406c0-2.594 0.616-4.677 1.844-6.25 1.23-1.583 2.84-2.375 4.828-2.375 1.98 0 3.548 0.677 4.704 2.031v-8.812h2.89v24h-2.656l-0.14-1.812c-1.156 1.417-2.766 2.125-4.828 2.125-1.958 0-3.558-0.802-4.798-2.406-1.228-1.604-1.844-3.698-1.844-6.281v-0.219zM570.016 15.734c0 1.917 0.396 3.417 1.188 4.5 0.79 1.083 1.884 1.625 3.28 1.625 1.834 0 3.172-0.823 4.016-2.469v-7.766c-0.864-1.594-2.192-2.391-3.984-2.391-1.418 0-2.522 0.547-3.312 1.641-0.792 1.094-1.188 2.714-1.188 4.859zM608.796 20.016l3.25-12.922h2.892l-4.922 16.906h-2.344l-4.11-12.813-4 12.813h-2.344l-4.906-16.906h2.876l3.328 12.656 3.938-12.656h2.328l4.014 12.922zM621.032 24h-2.892v-16.906h2.892v16.906zM617.906 2.609c0-0.469 0.14-0.865 0.422-1.188 0.292-0.323 0.718-0.484 1.282-0.484 0.562 0 0.988 0.161 1.28 0.484s0.438 0.719 0.438 1.188-0.146 0.859-0.438 1.172c-0.292 0.312-0.718 0.469-1.28 0.469-0.564 0-0.99-0.156-1.282-0.469-0.282-0.312-0.422-0.703-0.422-1.172zM629.594 3v4.094h3.156v2.234h-3.156v10.484c0 0.677 0.14 1.188 0.422 1.531 0.28 0.333 0.76 0.5 1.438 0.5 0.332 0 0.79-0.063 1.374-0.188v2.344c-0.76 0.208-1.5 0.312-2.218 0.312-1.292 0-2.266-0.391-2.922-1.172s-0.984-1.891-0.984-3.328v-10.485h-3.080v-2.234h3.080v-4.094h2.89zM639.032 9.141c1.28-1.573 2.948-2.359 5-2.359 3.572 0 5.374 2.016 5.406 6.047v11.172h-2.892v-11.188c-0.010-1.219-0.29-2.12-0.842-2.703-0.542-0.583-1.392-0.875-2.548-0.875-0.938 0-1.76 0.25-2.468 0.75s-1.26 1.156-1.656 1.969v12.047h-2.892v-24h2.892v9.141z"></path>
</symbol>
<symbol id="icon-heart" viewBox="0 0 34 32">
<path fill="#ff6b08" style="fill: var(--color2, #ff6b08)" d="M17.231 31.705l-2.412-2.412c-8.96-7.926-14.818-13.268-14.818-19.815-0.001-0.037-0.001-0.080-0.001-0.124 0-5.166 4.188-9.354 9.354-9.354 0.044 0 0.087 0 0.13 0.001l-0.007-0c3.1 0.032 5.868 1.423 7.742 3.605l0.012 0.014c1.886-2.195 4.654-3.587 7.748-3.618l0.006-0c0.037-0.001 0.080-0.001 0.124-0.001 5.166 0 9.354 4.188 9.354 9.354 0 0.044-0 0.087-0.001 0.13l0-0.007c0 6.548-5.858 11.889-14.818 19.815l-2.412 2.412z"></path>
</symbol>
</defs>
</svg>
